<?xml version="1.0" encoding="utf-8"?>
<!-- Generator: Adobe Illustrator 25.1.0, SVG Export Plug-In . SVG Version: 6.00 Build 0)  -->
<svg version="1.1" id="Layer_1" xmlns="http://www.w3.org/2000/svg" xmlns:xlink="http://www.w3.org/1999/xlink" x="0px" y="0px"
	 viewBox="0 0 1800 630" style="enable-background:new 0 0 1800 630;" xml:space="preserve">
<style type="text/css">
	.st0{fill:#9596AE;}
	.st1{fill:url(#SVGID_1_);}
	.st2{fill:url(#SVGID_2_);}
	.st3{fill:#FFFFFF;}
	.st4{fill:none;stroke:#9596AE;stroke-width:5;stroke-linecap:round;stroke-miterlimit:10;}
	.st5{fill-rule:evenodd;clip-rule:evenodd;fill:#46A637;}
	.st6{fill-rule:evenodd;clip-rule:evenodd;fill:#CB1277;}
	.st7{fill:#1C94D3;}
	.st8{fill:#ECA415;}
	.st9{fill:#757777;}
</style>
<g id="Homebridge">
	<g id="Text">
		<path class="st0" d="M136.2,471.8h29v-31.1H178v75.9h-12.7v-33.8h-29v33.8h-12.8v-75.9h12.8v31.1H136.2z"/>
		<path class="st0" d="M222.8,517.6c-16.9,0-28.4-10.2-28.4-34.1v-9.7c0-23.9,11.4-34.1,28.4-34.1s28.5,10.2,28.5,34.1v9.7
			C251.3,507.3,239.9,517.6,222.8,517.6z M207.2,483.5c0,16.4,5.5,23,15.6,23s15.7-6.6,15.7-23v-9.7c0-16.4-5.6-23-15.7-23
			s-15.6,6.6-15.6,23V483.5z"/>
		<path class="st0" d="M301.7,484.7l21.9-44h12.2v75.9h-12.3v-50.8L306.1,502h-9L280,466.1v50.5h-12.3v-75.9h12.1L301.7,484.7z"/>
		<path class="st0" d="M401.8,440.7v11.1H368v20h30.5v11H368v22.8h33.8v11h-46.5v-75.9L401.8,440.7z"/>
		<path class="st0" d="M441,440.7c17.8,0,27,6.6,27,19.7c0.2,7.3-4.3,13.9-11.1,16.5c8.6,2.4,13.5,8.4,13.5,17.9
			c0,11.4-7.3,21.8-27,21.8h-26.8v-75.9L441,440.7L441,440.7z M429.3,471.7h12.4c9.5,0,13.4-4.3,13.4-10.6c0-5.9-3-9.5-15.1-9.5
			h-10.7L429.3,471.7z M429.3,505.6h13.3c10.2,0,15-4.2,15-11.4c0-8-5.3-11.4-16.5-11.4h-11.8V505.6z"/>
		<path class="st0" d="M527.7,516.6l-14.6-30.8h-14.7v30.8h-12.8v-75.9h25.9c17.5,0,27.9,7.6,27.9,22.7c0,10.5-5,17.2-13.8,20.4
			l16.2,32.9h-14.1V516.6z M510.6,474.8c10.8,0,16.1-2.9,16.1-11.4s-5.3-11.5-16.1-11.5h-12.2v23L510.6,474.8z"/>
		<path class="st0" d="M569.4,516.6h-12.8v-75.9h12.8V516.6z"/>
		<path class="st0" d="M589.9,516.6v-75.9h25.6c17,0,28.5,9.1,28.5,33.4v9c0,24.3-11.4,33.4-28.5,33.4L589.9,516.6z M631.2,483.1v-9
			c0-15.6-4.8-22.3-15.7-22.3h-12.9v53.8h12.9C626.4,505.6,631.2,498.8,631.2,483.1z"/>
		<path class="st0" d="M713.6,477.6v5.8c0,23.9-10.9,34.1-27.9,34.1s-28.4-10.2-28.4-34.1v-9.1c0-24.4,11.4-34.6,28.4-34.6
			c15.4,0,25.2,8.6,27.6,24.5H701c-1.9-8.8-6.7-13.4-15.3-13.4c-10.1,0-15.6,6.6-15.6,23v9.7c0,16.4,5.5,23,15.6,23
			c9.7,0,14.5-5.7,15.4-17.7H686v-11.1L713.6,477.6L713.6,477.6z"/>
		<path class="st0" d="M776.5,440.7v11.1h-33.8v20h30.5v11h-30.5v22.8h33.8v11H730v-75.9L776.5,440.7z"/>
	</g>
	<g id="Logo">
		
			<linearGradient id="SVGID_1_" gradientUnits="userSpaceOnUse" x1="450" y1="-343.5" x2="450" y2="-43.5" gradientTransform="matrix(1 0 0 1 0 430)">
			<stop  offset="0" style="stop-color:#57277C"/>
			<stop  offset="1" style="stop-color:#491F59"/>
		</linearGradient>
		<circle class="st1" cx="450" cy="236.5" r="150"/>
		
			<radialGradient id="SVGID_2_" cx="450" cy="-193.5" r="150" gradientTransform="matrix(1 0 0 1 0 430)" gradientUnits="userSpaceOnUse">
			<stop  offset="0" style="stop-color:#000000;stop-opacity:0"/>
			<stop  offset="1" style="stop-color:#000000;stop-opacity:0.1"/>
		</radialGradient>
		<circle class="st2" cx="450" cy="236.5" r="150"/>
		<path class="st3" d="M551.7,221.2h-0.2l-18.3-18.3c-0.6-0.7-1-1.6-1-2.5v-42.3c0-9-7.3-16.2-16.2-16.2h-11.5
			c-9,0-16.2,7.3-16.2,16.2v0.2l-27.1-26.2c-6.4-6.1-16.5-6-22.8,0.2L346.8,224c-6.3,6.3-6.3,16.6,0,22.9l0,0l0,0l8.7,8.7
			c6.3,6.3,16.5,6.3,22.9,0.1l70.5-69.4c1.4-1.4,3.6-1.4,5,0l69,69c1.4,1.4,1.4,3.6,0,5l-8.5,8.5c-1.4,1.4-3.6,1.4-5,0l-48.5-47
			c-6.4-6.2-16.5-6.1-22.8,0.2l-46.5,46.7c-6.3,6.3-6.3,16.6,0,22.9l8.6,8.6c6.3,6.3,16.5,6.3,22.9,0.1l25.1-24.8
			c1.4-1.4,3.6-1.4,5,0L478,300c1.4,1.4,1.4,3.6,0,5l0,0l-24.7,24.9c-0.1,0-0.2-0.1-0.3-0.1c-5.1,0-9.3,4.1-9.3,9.3
			c0,5.1,4.1,9.3,9.3,9.3c5.1,0,9.3-4.1,9.3-9.3v-0.2l24.8-24.8c6.4-6.3,6.4-16.6,0-23l0,0L487,291l-24.9-24.5
			c-6.3-6.2-16.5-6.2-22.8,0l-25.1,24.8c-1.4,1.4-3.6,1.4-5,0l-8.6-8.6c-1.4-1.4-1.4-3.6,0-5l46.5-46.7c1.4-1.4,3.6-1.4,5-0.1
			l48.5,47.1c6.4,6.1,16.5,6.1,22.8-0.2l8.5-8.5c6.3-6.3,6.3-16.6,0-22.9l-69.1-69.1c-6.3-6.3-16.5-6.3-22.9-0.1l-70.5,69.4
			c-1.4,1.4-3.6,1.4-5,0l-8.7-8.7c-1.4-1.4-1.4-3.6,0-5l91.7-91.7c1.4-1.4,3.6-1.4,5,0l48.6,47V158c0-2,1.6-3.5,3.5-3.5H516
			c2,0,3.5,1.6,3.5,3.5v42.4c0,4.3,1.7,8.5,4.8,11.5l18.2,18.2c0,0.1-0.1,0.2-0.1,0.3c0,5.1,4.2,9.3,9.3,9.2c5.1,0,9.3-4.2,9.2-9.3
			C561,225.4,556.8,221.3,551.7,221.2L551.7,221.2z"/>
	</g>
</g>
<g id="Divider">
	<line class="st4" x1="998" y1="14.2" x2="902" y2="614.2"/>
</g>
<g>
	<path class="st5" d="M1152.5,308.6c-24.3,1.3-43.4-10.1-46.3-27.7c-0.1-0.6-0.2-1.2-0.2-1.8c3.9-1.4,7.9-2.1,12-2.1
		c5.6,0,11.1,1.4,16.1,4.2C1144,286.7,1150.3,296.4,1152.5,308.6"/>
	<path class="st5" d="M1169.4,305.7c-2,0.6-4.1,1.1-6.2,1.5c-2.6,0.5-5.2,0.9-7.7,1.2c-2.2-13.2-9.1-23.9-19.9-29.9
		c-5.5-3.1-11.4-4.6-17.6-4.6c-4.2,0-8.3,0.7-12.2,2c-0.2-4.6,0.3-8.9,1.6-13c4.1-1,8.3-1.5,12.3-1.5c8.7,0,16.6,2.2,23.4,6.5
		C1156.7,277.7,1165.7,291.1,1169.4,305.7"/>
	<path class="st5" d="M1173.5,304.4c-4-15.6-13.6-30-27.9-40.2c-7.6-4.8-16.3-7.3-25.9-7.3c-3.4,0-6.8,0.3-10.2,0.9
		c6.3-12.2,20.8-21.2,46-25.1c31.7-4.1,61-1.6,65,19.1C1223.2,269.4,1200.4,294.9,1173.5,304.4"/>
	<path class="st6" d="M1064.3,364.5l-0.1-0.1c-5.5-7.6-10.4-16.9-12.4-27.7c-1.3,0.2-2.5,0.5-3.8,0.7c-29.1,6.6-46.8,25.7-43.2,47.6
		c4.6,16.7,23.3,34.4,64,22.7c22-6,36.4-12.9,45.1-22.4h-1.2C1093.7,385.3,1074.7,377.1,1064.3,364.5"/>
	<path class="st6" d="M1091.6,361.4c-10.6-6.6-17.4-15.8-19.9-26.3c-5.3,0-10.5,0.3-15.4,0.9c1.6,8.7,5.5,17.3,11.6,25.7
		c9.6,11.6,27.2,19.1,44.8,19.1c1.6,0,3.2-0.1,4.8-0.2c2.6-4,4.4-8.4,5.5-13.3c-2.3,0.4-4.7,0.6-7.2,0.6
		C1107.7,367.9,1099.3,365.6,1091.6,361.4"/>
	<path class="st6" d="M1093.2,358.8c7.2,3.9,15.1,6,22.7,6c2.7,0,5.2-0.3,7.7-0.8c0.8-19.3-24.1-28.1-48.9-28.9
		C1077.1,344.5,1083.4,352.8,1093.2,358.8"/>
	<path class="st7" d="M1071.1,278.7c-12.8,14.8-18.6,28.8-20,41.4c-5-3.9-9.8-9.1-13.7-14.9c-12.9-19-22.1-48.5-2-70.7
		c20.2-22.1,41.6-21.8,54.5-2.8c4.4,6.6,7.1,17.3,8,29.3C1087.9,264.6,1078.4,270.8,1071.1,278.7"/>
	<path class="st7" d="M1098,283c-1.3,16.1-5.4,31.1-11.9,38c-3.8,4.1-8,6.2-12.5,6.7c-0.3-6.6,1-13.5,4.2-20.5
		C1082.6,296.5,1089.7,288.2,1098,283"/>
	<path class="st7" d="M1098.3,279.3c0.2-4.5,0.2-9.1,0.1-13.5c-9,3.5-17.4,9.1-24,15.9c-11.7,13.6-18.1,27.6-18.9,41.4
		c5,3,10.1,4.8,15.2,4.8c-0.4-7,1-14.5,4.4-21.9C1080.4,293.9,1088.7,284.6,1098.3,279.3"/>
	<path class="st8" d="M1133,360.7c0.6-16,4-31,10.1-38.6c3-3.8,6.5-6.3,10.1-7.7c0.6,8.2-0.6,17.3-3.5,26.8
		C1146.2,350.1,1140.4,356.8,1133,360.7"/>
	<path class="st8" d="M1170.9,315.3L1170.9,315.3c-5-2.1-10-2.8-14.8-1.8c0.7,8.8-0.4,18.5-3.6,28.6c-4,10.4-10.8,17.9-19.6,22.1
		c-0.1,4.3,0,8.7,0.3,12.9c4.7-1.8,9.2-4.2,13.3-7.3c9.5-7.1,16.9-17.5,21.8-30.7C1170.8,331.3,1171.7,323.2,1170.9,315.3"/>
	<path class="st8" d="M1197,401.8c-19,24.6-40,28-53.7,10.5c-5-6.4-8.1-17.7-9.5-30.4c17.7-6.2,31.4-20.4,38.9-41.2
		c2.4-7.6,3.3-15.5,2.9-23.1c6,3.4,11.6,8.5,16.4,14.6C1205.6,349.7,1215.9,377.1,1197,401.8"/>
	<path class="st9" d="M1644,348.5c4.2-4.3,62.8-59.1,62.8-59.1h-65.3v-15.6h95.8c0,7.2,0.3,12.2-1.2,15.6c0,0-1.3,2.7-6.1,6.7
		c-5.5,5.7-61.1,57.3-61.1,57.3h70.1v14.6h-100.8C1637.9,356.8,1638.7,354.3,1644,348.5"/>
	<path class="st9" d="M1369.9,348.5c4.2-4.3,62.8-59.1,62.8-59.1h-65.3v-15.6h95.8c0,7.2,0.3,12.2-1.2,15.6c0,0-1.4,2.7-6.1,6.7
		c-5.5,5.7-61.1,57.3-61.1,57.3h70.1v14.6H1364C1363.8,356.8,1364.6,354.3,1369.9,348.5"/>
	<rect x="1600.9" y="273.8" class="st9" width="25.2" height="94.3"/>
	<path class="st9" d="M1330.1,273.8h-62.6c-12.5,0-21.7,5.5-21.7,20.2v50.3c0,14.2,3.8,23.9,23.2,23.9h83.4v-15.6h-68.3
		c-12.1,0-13.9-4.1-13.9-8.9v-14h82.6V294C1352.9,280.9,1347,273.8,1330.1,273.8 M1329.5,314h-59.2v-17.7c0-3.5,2.4-6.8,8.3-6.8
		h42.5c4.8,0,8.5,0.5,8.5,6.8V314z"/>
	<path class="st9" d="M1543.3,362.8l49.9-89h-25.2l-42.8,74.4l-26.7-74.4h-25.2l33.9,89c1.1,1.8,3.9,5.2,9.3,5.2h17.6
		C1539.4,368.1,1542.2,364.6,1543.3,362.8"/>
	<polygon class="st9" points="1752.7,276.4 1748.3,276.4 1748.3,289.7 1745.1,289.7 1745.1,276.4 1740.7,276.4 1740.7,274 
		1752.7,274 	"/>
	<polygon class="st9" points="1758.6,274 1762.6,285.6 1762.7,285.6 1766.7,274 1770.8,274 1770.8,289.7 1767.7,289.7 1767.7,285.1 
		1768,278.1 1767.9,278.1 1763.7,289.7 1761.6,289.7 1757.4,278.1 1757.3,278.1 1757.6,285.1 1757.6,289.7 1754.5,289.7 1754.5,274 
			"/>
</g>
</svg>
